<svg version="1.1" id="Layer_1" xmlns="http://www.w3.org/2000/svg" xmlns:xlink="http://www.w3.org/1999/xlink" x="0px"
    y="0px" width="100%" viewBox="0 0 1024 976" enable-background="new 0 0 1024 976" xml:space="preserve">
    <path fill="#222222" opacity="1.000000" stroke="none" d="
M756.522522,694.426514 
	C747.159302,678.071228 736.614868,662.877991 727.431030,646.821960 
	C713.678101,622.777832 714.097961,599.683777 730.294373,577.093628 
	C732.550293,573.947083 734.162720,570.246277 738.044922,567.153259 
	C737.374512,571.235107 736.598389,574.426331 736.364624,577.656738 
	C735.480774,589.872498 739.360107,601.010681 744.694580,611.696716 
	C754.701538,631.742859 768.946106,649.160217 780.174377,668.458252 
	C782.554871,672.549622 784.561279,670.304321 785.748901,667.539001 
	C789.790771,658.127380 791.000854,648.217468 789.124451,638.207642 
	C786.522949,624.330078 778.857300,612.748047 771.470764,601.019775 
	C754.787903,574.531006 738.436829,547.885803 724.851196,519.560303 
	C715.196716,499.430908 715.918579,480.833893 728.123535,462.361328 
	C731.793884,456.806152 735.047058,450.976257 738.535950,445.299591 
	C739.283508,444.083221 739.736938,442.489716 741.517334,442.272156 
	C742.699036,443.144836 742.062439,444.078979 741.627991,444.916107 
	C735.501709,456.720856 736.018616,468.625336 741.095032,480.583405 
	C750.232056,502.106659 761.780212,522.358398 773.749512,542.386536 
	C783.228577,558.247559 794.699219,572.857605 802.711365,589.661133 
	C808.755920,602.338074 811.477661,615.461853 810.221741,629.373901 
	C809.597168,636.292969 806.655701,642.503235 803.216858,648.455750 
	C798.051575,657.396729 792.895264,666.343384 787.650085,675.237366 
	C785.800293,678.373962 785.833191,681.282043 787.205261,684.683167 
	C795.479065,705.192993 795.516602,725.244507 785.176270,745.433105 
	C778.395081,758.672668 770.687866,771.286377 762.947510,783.921265 
	C760.373657,788.122681 756.150940,787.640381 752.168030,787.022400 
	C736.185120,784.542847 727.237549,774.128723 721.835022,759.806641 
	C721.089355,757.829834 720.973328,755.539551 718.812378,753.909241 
	C715.968872,755.787537 714.843323,759.033447 712.957764,761.609985 
	C706.430786,770.528870 699.906433,779.299377 689.032654,783.559265 
	C668.922485,791.437683 648.828003,780.925964 643.663452,759.994263 
	C640.442871,746.940979 639.543640,733.920532 643.483215,721.011658 
	C648.594849,704.261902 643.207886,688.942871 637.226501,673.951050 
	C623.713440,640.081848 603.432983,610.483032 577.663757,584.807434 
	C556.568726,563.789124 532.931763,545.917664 506.994110,531.187256 
	C502.654510,528.722717 500.923798,529.725037 501.321594,535.088867 
	C502.401001,549.643555 499.892365,563.599854 495.219330,577.294678 
	C492.567719,585.065247 488.644348,592.255676 484.723999,599.377991 
	C478.702301,610.317993 472.067017,620.922852 465.581451,631.602783 
	C464.429199,633.500244 463.345398,635.659607 460.760864,636.826599 
	C459.611450,634.043091 461.618988,632.530518 462.634857,630.935791 
	C471.407654,617.164246 477.772003,602.552734 480.495422,586.270630 
	C483.382202,569.011536 481.925018,552.464844 475.067352,536.367676 
	C472.914185,531.313477 470.960968,526.173889 468.920685,521.071655 
	C465.688324,512.988464 460.505310,507.147644 452.041504,503.867004 
	C435.582855,497.487488 419.265198,490.791901 402.449585,485.329102 
	C387.701569,480.538055 373.263824,474.775909 360.348999,465.978119 
	C339.457611,451.746674 329.143677,431.707916 327.722534,406.573273 
	C326.496277,384.885681 332.864655,365.128510 341.788513,345.904236 
	C352.113281,323.661957 364.171783,302.368835 377.319946,281.684021 
	C377.942932,280.703918 378.602997,279.738861 379.339691,278.844086 
	C379.605713,278.520935 380.147675,278.424988 380.563293,278.225555 
	C381.612335,279.518097 380.710815,280.571899 380.275116,281.551208 
	C374.707916,294.064941 376.362640,306.420868 381.897675,318.259338 
	C391.235596,338.231476 403.255005,356.689972 415.461670,374.990143 
	C434.689880,403.817017 454.146667,432.491974 472.124664,462.131470 
	C474.111176,465.406525 476.447998,468.474976 478.339081,471.800293 
	C480.086090,474.872406 482.592285,476.791443 485.748169,478.172455 
	C517.671814,492.142334 547.196838,509.976776 574.196350,532.105225 
	C614.211548,564.901184 643.923462,604.759766 659.750305,654.415405 
	C660.387207,656.413757 660.606506,658.710999 662.539062,660.133606 
	C664.821106,660.219299 665.083923,658.366760 665.739197,656.905640 
	C672.662964,641.467102 670.449402,626.814331 662.270203,612.485962 
	C654.067749,598.116882 644.204956,584.886841 634.529297,571.542969 
	C615.654358,545.512024 596.876404,519.415833 578.535950,493.004608 
	C571.220093,482.469299 563.877625,471.947388 556.284363,461.612488 
	C553.602905,457.962769 553.533691,454.993744 555.934814,451.204346 
	C560.301025,444.313843 564.184326,437.119141 568.363708,430.107727 
	C571.355713,425.088379 572.692322,424.973480 576.011658,429.940887 
	C592.402527,454.470337 609.969238,478.168121 626.993042,502.249146 
	C639.976074,520.614258 653.287781,538.749573 666.098083,557.233276 
	C675.348267,570.580261 686.115051,583.171021 689.190735,601.286865 
	C692.461609,596.602722 692.577515,592.666016 692.637024,588.879883 
	C692.914001,571.254517 687.869751,555.049011 679.014832,539.957764 
	C663.585449,513.661804 647.523865,487.750488 630.873779,462.214294 
	C615.359741,438.420227 613.999146,414.447205 628.900574,389.908264 
	C634.085449,381.370026 638.824585,372.538635 644.388672,364.258698 
	C651.361450,353.882385 661.048889,347.450073 674.017029,347.670349 
	C686.131470,347.876129 695.621887,353.440186 701.415894,363.979584 
	C709.542847,378.762604 711.103271,394.224548 703.992065,410.036896 
	C699.191040,420.712463 692.409546,430.262512 686.814453,440.485596 
	C686.507446,441.046509 686.008362,441.564270 684.713867,441.240814 
	C685.493896,436.578644 687.736206,432.259460 688.374939,427.515778 
	C690.330872,412.989868 687.248047,399.996185 677.191345,389.060883 
	C668.460388,379.567108 652.986206,377.292664 641.733459,383.492798 
	C638.360474,385.351257 638.067871,388.282379 637.972778,391.557953 
	C637.533081,406.706360 643.412109,419.642578 651.239563,432.198578 
	C666.925476,457.360199 683.478882,482.001801 698.020508,507.852661 
	C706.491821,522.912415 712.331116,538.992615 712.217163,556.684814 
	C712.121948,571.460754 705.700684,584.367310 700.399231,597.650269 
	C688.548340,627.343079 673.517578,655.720276 663.499329,686.153748 
	C658.739563,700.612915 656.996887,715.398560 662.140625,730.283264 
	C668.360901,748.283203 688.380737,755.084900 704.533875,745.033081 
	C715.404846,738.268250 720.648315,727.593689 725.696838,716.668030 
	C728.345703,710.935364 731.221130,705.417480 736.143005,700.788879 
	C738.343445,703.602966 737.274841,706.319092 737.050903,708.760986 
	C735.688599,723.614258 741.139771,735.508240 752.507874,744.810974 
	C756.932617,748.431702 761.823853,751.308594 767.856934,751.179382 
	C772.055176,751.089417 774.236450,749.239624 774.046387,744.669250 
	C773.745911,737.442383 772.270813,730.480347 770.178162,723.605896 
	C767.054749,713.345581 762.765259,703.631531 756.522522,694.426514 
M359.007202,413.484253 
	C362.314758,418.497650 365.881897,423.234100 370.551270,427.158813 
	C385.788910,439.966339 404.088898,446.637207 422.366089,453.387085 
	C423.308105,453.734985 424.314606,453.899048 425.313293,452.958710 
	C426.003387,450.232361 423.901611,448.418854 422.621613,446.450623 
	C409.192871,425.801727 395.234406,405.482056 382.327789,384.514008 
	C373.128662,369.569122 362.900696,354.964233 358.898895,337.350861 
	C358.644989,336.233459 358.466614,334.658661 355.901459,334.267700 
	C346.060974,360.870453 343.539825,387.087738 359.007202,413.484253 
z" />
    <path fill="#222222" opacity="1.000000" stroke="none" d="
M471.810181,821.141357 
	C476.451294,840.326111 489.290924,851.738831 505.975494,859.581482 
	C525.827698,868.913269 546.754517,868.327393 567.725037,865.361511 
	C589.955261,862.217468 610.218567,853.300415 629.903442,842.910583 
	C631.957031,841.826660 633.946289,839.852600 636.650635,841.015686 
	C637.304993,843.202759 635.895203,844.390503 634.815369,845.538940 
	C616.315430,865.214111 596.172302,882.934753 571.207520,893.904846 
	C546.087585,904.942993 520.316406,905.810181 495.155670,894.072571 
	C470.172699,882.418030 456.636169,862.172058 453.783875,834.754211 
	C451.200043,809.916992 455.791870,786.384338 466.438354,763.911743 
	C466.954224,762.822815 468.093842,761.713013 467.071350,759.975830 
	C459.955109,770.720154 449.956879,766.764343 441.133972,764.332886 
	C425.923492,760.140991 416.500031,749.765076 413.499695,733.967651 
	C412.972565,731.192322 412.178558,728.466675 411.470032,725.727905 
	C411.396027,725.441895 411.064117,725.222656 410.850555,724.970947 
	C408.193604,724.800781 407.101074,726.954895 405.576050,728.343445 
	C380.924591,750.790771 354.104004,769.689636 321.344177,778.349792 
	C292.934875,785.859924 265.860352,783.677856 241.362534,765.699524 
	C224.705307,753.475281 217.283813,736.405884 215.738663,716.430603 
	C214.020996,694.225159 220.990692,673.679749 228.642776,653.353210 
	C230.985184,647.131042 233.764938,641.064209 236.551651,635.021790 
	C238.352432,631.117188 238.204575,628.060120 234.152069,625.703857 
	C229.163696,622.803406 227.264618,617.834473 225.678345,612.640381 
	C221.448853,598.791260 222.714203,585.123047 226.129532,571.283630 
	C230.646500,552.980469 238.931015,536.339050 247.527634,519.782959 
	C247.910065,519.046448 248.300400,518.283447 248.838745,517.664856 
	C250.030838,516.294983 251.328308,514.482056 253.380341,515.675781 
	C255.292068,516.787842 254.103683,518.591980 253.648651,520.154053 
	C249.366714,534.853516 242.295410,548.614807 239.057236,563.667786 
	C237.339722,571.651855 235.429199,579.610962 237.315262,587.839600 
	C237.723007,589.618469 238.128479,591.437134 238.857468,593.095703 
	C240.818436,597.557251 243.669525,601.337219 248.939728,601.729492 
	C253.787842,602.090332 256.865143,598.869995 259.562317,595.312988 
	C261.924042,592.198425 262.941315,588.117065 266.157806,585.634583 
	C268.160309,586.565308 268.095062,588.240295 267.938507,589.615784 
	C266.701813,600.480591 264.002045,610.897217 257.886383,620.155029 
	C256.977356,621.531067 255.953171,623.097717 254.583588,623.858093 
	C247.569656,627.751953 244.996368,634.560120 242.373047,641.463562 
	C237.140869,655.232422 232.756653,669.233337 233.322708,684.140564 
	C234.153946,706.032227 244.262054,722.685059 262.546448,734.732361 
	C283.444366,748.501648 305.921753,748.605408 328.826874,742.291382 
	C355.441620,734.954773 379.743652,722.707947 400.990295,704.864624 
	C406.199066,700.490173 410.967590,695.591431 415.934998,690.929871 
	C418.075073,688.921631 419.994965,686.505493 423.559387,686.793579 
	C424.913910,689.774292 424.123474,692.788147 424.079193,695.704590 
	C423.769012,716.121460 438.950226,731.746765 459.359711,731.713806 
	C467.235291,731.701050 474.988220,730.613159 482.213379,727.182373 
	C486.651154,725.075012 486.793365,723.058289 482.795380,720.075562 
	C475.190216,714.401733 467.593262,708.716431 459.945831,703.099915 
	C454.314636,698.964172 451.266113,693.658020 451.591919,686.489563 
	C452.066803,676.039856 453.472961,665.967529 460.410278,657.446777 
	C465.449707,651.257141 472.329376,648.729980 479.672821,646.769836 
	C495.342560,642.587158 510.871307,645.231384 526.190857,648.262451 
	C546.586060,652.297791 566.763611,657.422058 587.079163,661.875916 
	C595.193176,663.654846 603.400574,665.054565 611.611450,666.331116 
	C619.289917,667.524841 619.903259,668.157593 617.201111,675.543884 
	C615.429810,680.385925 613.007324,684.995117 611.331055,689.865051 
	C609.792236,694.335999 606.940186,696.380066 602.381470,697.307922 
	C579.548889,701.955078 558.002747,710.293640 537.192017,720.637878 
	C535.552673,721.452820 534.042419,722.571289 532.346863,723.222046 
	C521.429016,727.412598 515.773926,735.247681 515.347778,746.979004 
	C515.224792,750.364014 513.861389,753.347290 510.703278,755.510010 
	C508.311584,752.851501 508.100739,749.543091 506.855164,746.721741 
	C505.208984,742.992981 502.968475,742.246094 499.990906,745.025635 
	C483.916351,760.030884 470.987091,776.877930 469.557709,799.928406 
	C469.125122,806.903992 470.050232,813.898499 471.810181,821.141357 
M508.020569,677.606506 
	C499.315155,675.735352 490.531219,675.679321 481.732147,676.639771 
	C479.864197,676.843750 477.258301,676.339600 476.499390,678.662415 
	C475.646362,681.273438 478.084595,682.499695 479.820557,683.621338 
	C490.049438,690.230103 499.754852,697.448975 507.822906,706.677002 
	C509.511383,708.608276 511.271027,708.837036 513.432800,707.109802 
	C521.798218,700.425781 531.334351,695.694153 540.773865,690.775818 
	C543.258972,689.480835 546.496521,689.045105 548.573975,685.315063 
	C535.354675,680.991211 521.940125,680.213806 508.020569,677.606506 
z" />
    <path fill="#222222" opacity="1.000000" stroke="none" d="
M536.617554,235.239441 
	C523.410950,208.101852 509.990112,181.480499 495.545898,155.415375 
	C483.687103,134.015823 482.905945,112.829796 493.905212,91.037895 
	C498.865997,81.209473 504.345886,71.698761 510.341858,62.477310 
	C510.927032,61.577290 511.311554,60.270782 512.916260,60.521275 
	C513.706726,62.368244 512.306519,63.667542 511.696381,65.110909 
	C503.977661,83.369873 502.904785,101.292747 512.727417,119.410667 
	C532.890076,156.600876 551.368469,194.664474 570.551025,232.363190 
	C579.638184,250.221756 579.236511,268.640411 574.086365,287.307495 
	C567.526855,311.083191 553.849304,331.361755 541.460449,352.225922 
	C536.268127,360.970398 535.819702,360.812653 529.646790,352.479370 
	C521.225464,341.110596 512.953003,329.631622 504.588562,318.220490 
	C503.545288,316.797241 502.924194,314.877197 500.832062,314.541656 
	C500.484100,314.690979 499.952148,314.777588 499.921265,314.952637 
	C496.795441,332.657959 493.408661,350.405060 498.826447,368.240143 
	C508.019562,398.503204 537.437805,410.130707 565.300537,395.015808 
	C575.907410,389.261749 584.599915,381.480133 592.578857,372.674347 
	C593.333191,371.841858 593.819275,370.634064 595.278259,370.677124 
	C596.600098,371.958008 595.582947,373.223236 595.021851,374.243835 
	C586.259888,390.181915 577.467346,406.192688 563.319214,418.149780 
	C548.802002,430.418823 532.281372,436.643707 512.909241,433.101166 
	C495.032806,429.832214 481.551422,414.133850 477.532043,393.514191 
	C474.733185,379.156097 477.350189,365.339630 479.208496,351.356262 
	C480.524109,341.456573 482.234558,331.609650 483.578766,321.713379 
	C486.238770,302.130585 479.000488,284.953583 469.777313,268.530487 
	C458.830841,249.038834 445.374786,231.177139 432.122955,213.221786 
	C429.376007,209.499863 428.793884,206.506058 431.561279,202.502655 
	C436.103241,195.932098 439.979889,188.927338 443.423340,181.695312 
	C444.324463,179.802750 445.096924,177.638016 448.083313,176.916901 
	C452.054138,182.402588 456.264801,187.929550 460.171570,193.663528 
	C486.802917,232.750778 513.080383,272.082458 540.911682,310.338623 
	C543.261536,313.568695 545.731689,316.722137 548.312927,319.769775 
	C550.713379,322.603821 552.859131,322.343475 554.119690,318.697479 
	C559.258850,303.833008 560.789307,288.931427 555.225220,273.728485 
	C550.339050,260.378082 544.251099,247.654114 536.617554,235.239441 
z" />
    <path fill="#222222" opacity="1.000000" stroke="none" d="
M362.745941,552.216003 
	C376.739197,565.422607 375.877960,561.997375 365.985779,577.731567 
	C363.859650,581.113342 361.327240,584.245422 359.286621,587.673828 
	C356.739044,591.954041 354.077698,591.500854 350.955902,588.442200 
	C345.702698,583.295288 339.665283,579.106262 333.873749,574.619873 
	C329.144714,570.956543 327.726898,571.199402 324.331909,576.229858 
	C321.349457,580.649048 318.321228,585.043518 315.520660,589.576965 
	C313.869568,592.249634 312.075317,592.427917 309.811829,590.614197 
	C301.884857,584.262329 293.958008,577.910034 286.072693,571.506653 
	C283.883942,569.729309 283.275116,567.585876 284.686890,564.874817 
	C288.862915,556.855286 294.696747,549.942017 299.564209,542.384583 
	C301.349152,539.613159 303.498871,541.071167 305.490112,542.640747 
	C311.768768,547.589966 318.167053,552.389099 324.391998,557.404053 
	C327.396606,559.824585 329.411896,559.729919 331.503876,556.221741 
	C334.400269,551.364441 337.848480,546.838379 340.803131,542.013000 
	C343.214661,538.074585 345.905334,538.133667 348.888580,541.005493 
	C353.105713,545.065125 357.867096,548.424377 362.745941,552.216003 
z" />
    <path fill="#222222" opacity="1.000000" stroke="none" d="
M565.569214,818.632446 
	C576.163757,817.863525 584.678101,812.520447 593.063843,808.070801 
	C594.701721,809.692932 594.309387,810.640198 593.692627,811.458557 
	C582.732361,826.000122 567.576111,834.904541 548.446533,832.295349 
	C534.817627,830.436401 529.527771,820.285400 535.374084,807.879272 
	C539.492126,799.140625 546.243896,792.406494 552.809143,785.548096 
	C554.033691,784.268738 556.030762,783.220276 555.414368,781.077881 
	C554.764893,778.820618 552.453979,779.387756 550.756287,778.975647 
	C545.528198,777.706665 540.520996,778.302002 535.715088,780.718079 
	C534.839600,781.158325 533.924377,781.683167 532.924805,780.969360 
	C532.954285,773.107971 539.000916,766.176575 547.039185,764.952759 
	C553.268494,764.004333 559.364929,765.049255 565.272888,766.909668 
	C569.722229,768.310791 571.138000,771.674500 569.636963,776.526184 
	C567.927002,782.053284 564.726624,786.744873 560.647217,790.750610 
	C556.969604,794.362061 553.015503,797.695496 549.129395,801.089722 
	C547.236572,802.742981 545.382324,804.406738 544.173035,806.648560 
	C541.810547,811.028198 542.946167,814.264832 547.462952,816.381348 
	C553.115906,819.030212 559.113220,818.826904 565.569214,818.632446 
z" />
    <path fill="#222222" opacity="1.000000" stroke="none" d="
M734.198730,827.221191 
	C729.909546,833.968689 725.808533,840.414856 721.654846,846.826965 
	C719.755676,849.758789 717.882751,850.155212 714.809143,847.709961 
	C706.891541,841.411194 699.738464,834.122559 690.893005,829.001099 
	C688.037903,827.348022 686.956299,825.035767 688.915161,821.933350 
	C693.967346,813.931763 698.968384,805.897583 704.069458,797.927429 
	C705.734253,795.326355 707.644287,796.332703 709.514221,797.859314 
	C717.236694,804.163879 724.921326,810.516907 732.739258,816.701294 
	C736.555908,819.720398 737.459290,822.923401 734.198730,827.221191 
z" />
    <path fill="#222222" opacity="1.000000" stroke="none" d="
M339.048035,513.923950 
	C347.645538,521.434631 347.694550,521.515686 341.721771,530.917297 
	C338.516815,535.962158 335.032166,540.830994 331.885101,545.910217 
	C329.996735,548.957825 327.947296,549.717407 325.001678,547.472534 
	C316.949768,541.336243 308.701630,535.459778 301.027039,528.827881 
	C298.257965,526.435059 297.766022,524.108032 299.793030,521.082825 
	C304.503571,514.052490 309.166962,506.990295 313.814606,499.918121 
	C315.789368,496.913147 317.928101,497.910583 320.110718,499.560211 
	C326.336639,504.265656 332.550323,508.987183 339.048035,513.923950 
z" />
    <path fill="#222222" opacity="1.000000" stroke="none" d="
M462.189026,546.017212 
	C461.860352,547.887695 461.714386,549.414062 461.170380,550.782104 
	C459.957794,553.831421 458.420532,555.086426 455.328827,552.260254 
	C450.425079,547.777588 447.351624,548.575134 446.078857,555.098206 
	C444.362823,563.893188 443.491333,572.854736 442.315155,581.752380 
	C441.898682,584.903259 441.297272,588.002502 440.074036,590.935181 
	C439.441956,592.450684 438.747589,594.253540 436.764069,594.258911 
	C434.551056,594.264893 434.298584,592.173035 433.993652,590.661682 
	C432.517273,583.344788 428.764160,577.029785 425.402649,570.537720 
	C423.707977,567.264832 421.529388,565.382568 417.333588,565.035095 
	C412.970490,564.673828 408.117859,562.908569 406.633881,558.104553 
	C405.079773,553.073608 407.497253,548.349976 410.007690,544.018433 
	C411.093842,542.144409 413.158051,542.391174 414.973358,543.024292 
	C418.964294,544.416321 422.485870,546.377319 424.958191,550.078796 
	C428.696442,555.675537 432.881287,560.970215 435.701691,567.204102 
	C436.163116,567.084900 436.624542,566.965698 437.085938,566.846436 
	C437.624115,562.508362 438.169800,558.171143 438.698303,553.831909 
	C439.245575,549.338745 440.342804,545.015625 442.430664,540.962402 
	C444.356323,537.224243 446.866211,533.860046 451.445251,534.242188 
	C456.262421,534.644104 459.616699,537.705200 461.453369,542.209900 
	C461.883606,543.265198 461.954773,544.466919 462.189026,546.017212 
z" />
    <path fill="#222222" opacity="1.000000" stroke="none" d="
M290.346191,709.258606 
	C279.851044,705.730774 278.343994,696.866150 277.886108,688.241089 
	C277.025574,672.032104 282.528931,657.214539 289.750275,642.980835 
	C290.953583,640.609009 292.204987,638.259277 293.513153,635.943909 
	C294.459381,634.269165 295.302826,631.657410 297.732513,632.762634 
	C300.241730,633.903992 298.627991,636.406067 298.036255,638.078369 
	C296.598022,642.143005 294.610870,646.011353 293.124298,650.061401 
	C290.148499,658.168762 287.198059,666.290527 286.996735,675.105103 
	C286.906677,679.046509 287.561737,682.709656 289.762421,686.024963 
	C292.995483,690.895630 298.444183,691.056274 302.234619,686.520691 
	C304.057678,684.339233 304.608673,681.000183 307.830444,679.962952 
	C312.900085,690.575134 302.230621,708.705261 290.346191,709.258606 
z" />
    <path fill="#222222" opacity="1.000000" stroke="none" d="
M395.761810,812.579346 
	C402.955902,814.345398 404.193359,807.697144 407.784210,804.467529 
	C411.826111,812.228943 407.271729,826.239685 399.785583,829.764404 
	C393.508087,832.720032 387.697235,830.411926 384.657196,823.757874 
	C381.027435,815.813110 381.107666,807.496887 383.010529,799.296692 
	C385.726837,787.590881 390.238800,776.492798 396.017914,765.937744 
	C396.834503,764.446350 396.912811,764.489258 399.938293,763.007446 
	C401.637909,765.815796 399.707336,768.186279 398.798248,770.408447 
	C395.005066,779.680542 391.696503,789.057434 390.605225,799.091736 
	C390.034790,804.336975 390.852997,809.053162 395.761810,812.579346 
z" />
    <path fill="#222222" opacity="1.000000" stroke="none" d="
M490.279846,173.749146 
	C500.547302,185.850006 506.714630,199.164383 506.076660,215.029022 
	C505.874664,220.051834 504.933075,224.957214 502.841736,229.571548 
	C502.116608,231.171494 501.554260,233.026337 499.493591,233.314789 
	C497.731415,232.283234 498.368073,230.907745 498.536133,229.637299 
	C501.199310,209.506607 493.358032,193.924438 477.743622,181.739761 
	C472.816101,177.894577 472.034821,169.964111 476.188751,165.449051 
	C477.905457,163.583115 479.527100,164.577835 481.088287,165.552856 
	C484.510406,167.690125 487.275574,170.593063 490.279846,173.749146 
z" />
    <path fill="#222222" opacity="1.000000" stroke="none" d="
M696.576538,676.477295 
	C707.121155,671.639648 716.935730,666.061646 727.645508,662.325134 
	C729.183044,668.371033 727.054932,673.199158 721.854248,675.792725 
	C707.280151,683.060669 692.661621,690.239563 678.090210,697.512756 
	C675.309509,698.900757 672.664307,700.560181 669.832947,702.164429 
	C668.724609,696.683350 671.654053,689.669434 676.345337,687.042480 
	C682.872253,683.387695 689.601013,680.093567 696.576538,676.477295 
z" />
    <path fill="#222222" opacity="1.000000" stroke="none" d="
M495.983643,461.861389 
	C514.313782,453.045776 532.590027,445.073944 551.369995,437.383118 
	C551.664856,444.772522 549.710693,448.157654 544.439880,450.559448 
	C528.124573,457.994110 511.814392,465.440063 495.503418,472.884338 
	C494.313568,473.427429 493.192535,474.240936 491.103577,473.632477 
	C491.086365,469.204773 491.754272,465.085602 495.983643,461.861389 
z" />
</svg>